<?xml version="1.0" encoding="UTF-8" standalone="no"?>
<!-- Created with Inkscape (http://www.inkscape.org/) -->

<svg
   width="14.515487mm"
   height="12.545292mm"
   viewBox="0 0 14.515487 12.545293"
   version="1.1"
   id="svg1"
   xml:space="preserve"
   inkscape:version="1.3.1 (91b66b0783, 2023-11-16)"
   sodipodi:docname="nest_logo.svg"
   xmlns:inkscape="http://www.inkscape.org/namespaces/inkscape"
   xmlns:sodipodi="http://sodipodi.sourceforge.net/DTD/sodipodi-0.dtd"
   xmlns="http://www.w3.org/2000/svg"
   xmlns:svg="http://www.w3.org/2000/svg"><sodipodi:namedview
     id="namedview1"
     pagecolor="#ffffff"
     bordercolor="#000000"
     borderopacity="0.25"
     inkscape:showpageshadow="2"
     inkscape:pageopacity="0.0"
     inkscape:pagecheckerboard="0"
     inkscape:deskcolor="#d1d1d1"
     inkscape:document-units="mm"
     inkscape:zoom="5.8196765"
     inkscape:cx="24.05632"
     inkscape:cy="2.9211246"
     inkscape:window-width="1656"
     inkscape:window-height="1308"
     inkscape:window-x="36"
     inkscape:window-y="36"
     inkscape:window-maximized="1"
     inkscape:current-layer="layer1" /><defs
     id="defs1"><marker
       style="overflow:visible"
       id="marker27"
       refX="0"
       refY="0"
       orient="auto-start-reverse"
       inkscape:stockid="Triangle arrow"
       markerWidth="1"
       markerHeight="1"
       viewBox="0 0 1 1"
       inkscape:isstock="true"
       inkscape:collect="always"
       preserveAspectRatio="xMidYMid"><path
         transform="scale(0.5)"
         style="fill:context-stroke;fill-rule:evenodd;stroke:context-stroke;stroke-width:1pt"
         d="M 5.77,0 -2.88,5 V -5 Z"
         id="path27" /></marker><clipPath
       clipPathUnits="userSpaceOnUse"
       id="clipPath17"><rect
         style="fill:none;stroke:#000000;stroke-width:0.264583;stroke-linejoin:round;stroke-dasharray:none;stroke-opacity:1"
         id="rect18"
         width="3.3838258"
         height="2.2800801"
         x="31.18565"
         y="119.07761" /></clipPath><marker
       style="overflow:visible"
       id="Triangle-4-9-3"
       refX="0"
       refY="0"
       orient="auto-start-reverse"
       inkscape:stockid="Triangle arrow"
       markerWidth="1"
       markerHeight="1"
       viewBox="0 0 1 1"
       inkscape:isstock="true"
       inkscape:collect="always"
       preserveAspectRatio="xMidYMid"><path
         transform="scale(0.5)"
         style="fill:context-stroke;fill-rule:evenodd;stroke:context-stroke;stroke-width:1pt"
         d="M 5.77,0 -2.88,5 V -5 Z"
         id="path135-9-1-6" /></marker><marker
       style="overflow:visible"
       id="Triangle-4-9-3-4"
       refX="0"
       refY="0"
       orient="auto-start-reverse"
       inkscape:stockid="Triangle arrow"
       markerWidth="1"
       markerHeight="1"
       viewBox="0 0 1 1"
       inkscape:isstock="true"
       inkscape:collect="always"
       preserveAspectRatio="xMidYMid"><path
         transform="scale(0.5)"
         style="fill:context-stroke;fill-rule:evenodd;stroke:context-stroke;stroke-width:1pt"
         d="M 5.77,0 -2.88,5 V -5 Z"
         id="path135-9-1-6-5" /></marker><marker
       style="overflow:visible"
       id="Triangle-4-9-3-0"
       refX="0"
       refY="0"
       orient="auto-start-reverse"
       inkscape:stockid="Triangle arrow"
       markerWidth="1"
       markerHeight="1"
       viewBox="0 0 1 1"
       inkscape:isstock="true"
       inkscape:collect="always"
       preserveAspectRatio="xMidYMid"><path
         transform="scale(0.5)"
         style="fill:context-stroke;fill-rule:evenodd;stroke:context-stroke;stroke-width:1pt"
         d="M 5.77,0 -2.88,5 V -5 Z"
         id="path135-9-1-6-6" /></marker><marker
       style="overflow:visible"
       id="Triangle-4-9-3-1"
       refX="0"
       refY="0"
       orient="auto-start-reverse"
       inkscape:stockid="Triangle arrow"
       markerWidth="1"
       markerHeight="1"
       viewBox="0 0 1 1"
       inkscape:isstock="true"
       inkscape:collect="always"
       preserveAspectRatio="xMidYMid"><path
         transform="scale(0.5)"
         style="fill:context-stroke;fill-rule:evenodd;stroke:context-stroke;stroke-width:1pt"
         d="M 5.77,0 -2.88,5 V -5 Z"
         id="path135-9-1-6-55" /></marker><marker
       style="overflow:visible"
       id="Triangle-4-9-3-6"
       refX="0"
       refY="0"
       orient="auto-start-reverse"
       inkscape:stockid="Triangle arrow"
       markerWidth="1"
       markerHeight="1"
       viewBox="0 0 1 1"
       inkscape:isstock="true"
       inkscape:collect="always"
       preserveAspectRatio="xMidYMid"><path
         transform="scale(0.5)"
         style="fill:context-stroke;fill-rule:evenodd;stroke:context-stroke;stroke-width:1pt"
         d="M 5.77,0 -2.88,5 V -5 Z"
         id="path135-9-1-6-9" /></marker><marker
       style="overflow:visible"
       id="Triangle-4-9-3-6-5"
       refX="0"
       refY="0"
       orient="auto-start-reverse"
       inkscape:stockid="Triangle arrow"
       markerWidth="1"
       markerHeight="1"
       viewBox="0 0 1 1"
       inkscape:isstock="true"
       inkscape:collect="always"
       preserveAspectRatio="xMidYMid"><path
         transform="scale(0.5)"
         style="fill:context-stroke;fill-rule:evenodd;stroke:context-stroke;stroke-width:1pt"
         d="M 5.77,0 -2.88,5 V -5 Z"
         id="path135-9-1-6-9-4" /></marker><marker
       style="overflow:visible"
       id="Triangle-4-9-3-6-0"
       refX="0"
       refY="0"
       orient="auto-start-reverse"
       inkscape:stockid="Triangle arrow"
       markerWidth="1"
       markerHeight="1"
       viewBox="0 0 1 1"
       inkscape:isstock="true"
       inkscape:collect="always"
       preserveAspectRatio="xMidYMid"><path
         transform="scale(0.5)"
         style="fill:context-stroke;fill-rule:evenodd;stroke:context-stroke;stroke-width:1pt"
         d="M 5.77,0 -2.88,5 V -5 Z"
         id="path135-9-1-6-9-7" /></marker></defs><g
     inkscape:label="Layer 1"
     inkscape:groupmode="layer"
     id="layer1"
     transform="translate(-53.459275,-140.17691)"><g
       id="g256"
       transform="matrix(0.3527769,0,0,-0.3527769,12.63269,353.24638)"
       style="stroke-width:0.525001;stroke-dasharray:none"><path
         id="path34940-2-5-2-7"
         style="fill:none;fill-opacity:0.5;fill-rule:nonzero;stroke:#000000;stroke-width:0.525001;stroke-linecap:butt;stroke-linejoin:miter;stroke-miterlimit:4;stroke-dasharray:none;stroke-opacity:1"
         d="m 135.4538,582.94808 c -0.89155,-1.6578 -0.22397,-3.75936 1.4994,-4.6832 1.71696,-0.93451 3.84129,-0.33497 4.73284,1.33348 0.89154,1.65779 1.41225,5.51059 -0.31113,6.43656 -1.71695,0.93238 -5.02958,-1.42052 -5.92111,-3.08684 z"
         sodipodi:nodetypes="ccccc" /><path
         id="path34944-4-0-8-8"
         style="fill:none;fill-opacity:1;fill-rule:nonzero;stroke:#000000;stroke-width:0.525002;stroke-linecap:butt;stroke-linejoin:miter;stroke-miterlimit:4;stroke-dasharray:none;stroke-opacity:1"
         d="m 136.73565,582.67892 c -0.41308,-0.76551 -0.10755,-1.73122 0.68714,-2.15322 0.78893,-0.42985 1.75994,-0.15317 2.173,0.6124 0.41307,0.7596 0.0978,1.7253 -0.68908,2.15517 -0.79482,0.42985 -1.76583,0.15316 -2.17106,-0.61435 z" /><g
         id="g17"
         transform="translate(-1.0079865,-1.6262207)"
         style="stroke-width:0.525001;stroke-dasharray:none"><path
           id="path20044-9-9-1"
           style="fill:none;fill-opacity:0.5;fill-rule:nonzero;stroke:#000000;stroke-width:0.525001;stroke-linecap:butt;stroke-linejoin:miter;stroke-miterlimit:4;stroke-dasharray:none;stroke-opacity:1"
           d="m 127.94999,582.56892 c 0.55029,-2.10744 2.75227,-3.37641 4.89597,-2.81737 2.15967,0.55681 3.46229,2.7167 2.90466,4.8315 -0.54383,2.1113 -2.29987,5.30693 -4.45952,4.75011 -2.15104,-0.55167 -3.89012,-4.64427 -3.34111,-6.76424 z"
           sodipodi:nodetypes="ccccc" /><path
           id="path20048-1-1-0"
           style="fill:none;fill-opacity:1;fill-rule:nonzero;stroke:#000000;stroke-width:0.525;stroke-linecap:butt;stroke-linejoin:miter;stroke-miterlimit:4;stroke-dasharray:none;stroke-opacity:1"
           d="m 131.17976,585.04846 c 0.21548,-0.82228 1.07104,-1.31401 1.91351,-1.0966 0.84075,0.21638 1.34686,1.0573 1.12733,1.88633 -0.20876,0.82633 -1.06538,1.31974 -1.90781,1.10233 -0.84244,-0.21742 -1.34597,-1.05883 -1.13303,-1.89206 z" /></g></g><path
       style="fill:#ffffff;fill-opacity:1;stroke:none;stroke-width:0.15875;stroke-linejoin:bevel;stroke-dasharray:none;stroke-opacity:1"
       d="m 54.091395,146.77743 1.910027,4.27539 3.73313,1.66938 4.0913,-2.1809 1.557798,-4.12045 c -0.387479,0.24921 -0.08245,0.37984 -0.473634,0.57311 -3.337137,1.64875 -7.489159,1.39448 -10.818621,-0.21653 z"
       id="path18"
       sodipodi:nodetypes="cccccsc" /><g
       id="g21"
       transform="translate(0.97949439)"><path
         style="fill:none;fill-opacity:1;stroke:#000000;stroke-width:0.154;stroke-linejoin:round;stroke-dasharray:none;stroke-opacity:1;marker-end:url(#marker27)"
         d="m 54.992522,145.16127 v -2.74824 l 1.864115,2.7347 v -2.80597"
         id="path21" /><g
         id="g20"
         transform="matrix(0.71710749,0,0,-0.60757562,15.49424,230.679)"
         style="stroke-width:1.51498"><path
           style="fill:none;fill-opacity:1;stroke:#000000;stroke-width:0.233307;stroke-linejoin:round;stroke-dasharray:none;stroke-opacity:1;marker-end:url(#marker27)"
           d="m 60.644338,140.88193 h -1.881175 v 4.70794 l 1.715229,-0.0195"
           id="path22"
           sodipodi:nodetypes="cccc" /><path
           style="fill:none;fill-opacity:1;stroke:#000000;stroke-width:0.233307;stroke-linejoin:round;stroke-dasharray:none;stroke-opacity:1;marker-end:url(#marker27)"
           d="m 58.763163,143.01748 h 1.612088"
           id="path23" /></g><path
         style="fill:none;fill-opacity:1;stroke:#000000;stroke-width:0.154;stroke-linejoin:round;stroke-dasharray:none;stroke-opacity:1;marker-start:url(#Triangle-4-9-3-0)"
         d="m 61.258891,142.26886 h -1.504575 v 1.43097 h 1.452485 v 1.41947 h -1.503446"
         id="path24" /><g
         id="g19"
         transform="matrix(0.71710749,0,0,0.62979635,15.943481,53.576239)"
         style="stroke-width:1.48802"><path
           style="fill:none;fill-opacity:1;stroke:#000000;stroke-width:0.229155;stroke-linejoin:round;stroke-dasharray:none;stroke-opacity:1;marker-end:url(#marker27)"
           d="m 65.673728,140.83226 v 4.02075"
           id="path25" /><path
           style="fill:none;fill-opacity:1;stroke:#000000;stroke-width:0.229155;stroke-linejoin:round;stroke-dasharray:none;stroke-opacity:1;marker-end:url(#marker27)"
           d="m 64.26061,140.78016 h 2.720284"
           id="path26" /></g></g><g
       id="g18"><path
         style="fill:none;stroke:#000000;stroke-width:0.15875;stroke-linejoin:bevel;stroke-dasharray:none;stroke-opacity:1;marker-end:url(#Triangle-4-9-3)"
         d="m 54.091394,146.77743 c 5.83713,3.04196 12.30171,-0.0365 12.30171,-0.0365"
         id="path17-7-6"
         sodipodi:nodetypes="cc" /><path
         style="fill:none;stroke:#000000;stroke-width:0.15875;stroke-linejoin:bevel;stroke-dasharray:none;stroke-opacity:1;marker-end:url(#Triangle-4-9-3-4)"
         d="m 53.495958,147.06435 c 5.83713,3.04196 13.111947,0.93944 13.111947,0.93944"
         id="path17-7-6-3"
         sodipodi:nodetypes="cc" /><path
         style="fill:none;stroke:#000000;stroke-width:0.15875;stroke-linejoin:bevel;stroke-dasharray:none;stroke-opacity:1;marker-end:url(#Triangle-4-9-3-0)"
         d="m 53.727902,148.20017 c 5.937971,4.8351 13.799858,-1.20621 13.799858,-1.20621"
         id="path17-7-6-2"
         sodipodi:nodetypes="cc" /><path
         style="fill:none;stroke:#000000;stroke-width:0.15875;stroke-linejoin:bevel;stroke-dasharray:none;stroke-opacity:1;marker-end:url(#Triangle-4-9-3-1)"
         d="m 54.242739,147.89325 c 7.284604,4.15717 11.140912,-1.4724 11.140912,-1.4724"
         id="path17-7-6-7"
         sodipodi:nodetypes="cc" /><path
         style="fill:none;stroke:#000000;stroke-width:0.15875;stroke-linejoin:bevel;stroke-dasharray:none;stroke-opacity:1;marker-end:url(#Triangle-4-9-3-6)"
         d="m 54.533351,149.50156 c 5.490044,5.90471 11.360834,-0.63222 11.360834,-0.63222"
         id="path17-7-6-74"
         sodipodi:nodetypes="cc" /><path
         style="fill:none;stroke:#000000;stroke-width:0.15875;stroke-linejoin:bevel;stroke-dasharray:none;stroke-opacity:1;marker-end:url(#Triangle-4-9-3-6-5)"
         d="m 53.664472,147.70449 c 5.932338,7.09296 12.037763,0.0242 12.037763,0.0242"
         id="path17-7-6-74-4"
         sodipodi:nodetypes="cc" /><path
         style="fill:none;stroke:#000000;stroke-width:0.15875;stroke-linejoin:bevel;stroke-dasharray:none;stroke-opacity:1;marker-end:url(#Triangle-4-9-3-6-0)"
         d="m 54.539328,149.68699 c 6.376015,6.81882 10.148704,-0.29432 10.148704,-0.29432"
         id="path17-7-6-74-6"
         sodipodi:nodetypes="cc" /></g><path
       style="fill:#010101;fill-opacity:1;stroke:none;stroke-width:0.2;stroke-linejoin:bevel;stroke-dasharray:none;stroke-opacity:1"
       d="m 61.59368,141.35822 c 1.447284,-1.39324 2.030471,-0.51582 2.279677,-0.5044 0.249205,0.0114 0.08488,-0.82954 0.89625,-0.65238 0.81137,0.17715 1.881051,0.47643 0.910554,0.41546 -0.898257,-0.0564 -0.8632,-0.0569 -0.8632,-0.0569 -0.419494,0.053 -0.925028,0.34522 -0.639694,0.50767 0.285335,0.16246 0.601332,0.3114 0.279912,0.20618 -0.679213,-0.22236 -0.326772,0.27859 -0.494356,0.0858 -0.355105,-0.40834 -0.117464,-0.21093 -0.352643,-0.33109 -0.329157,-0.16819 -0.489117,-0.13098 -0.985545,0.0163 -0.496427,0.1473 -1.030955,0.31328 -1.030955,0.31328 z"
       id="path44"
       sodipodi:nodetypes="ccsssssssccc" /></g></svg>
